<svg width="18" height="23" viewBox="0 0 18 23" fill="none" xmlns="http://www.w3.org/2000/svg">
<path fill-rule="evenodd" clip-rule="evenodd" d="M4 1.8V3H2.4C1.07452 3 0 4.07452 0 5.4V20.6C0 21.9255 1.07452 23 2.4 23H15.6C16.9255 23 18 21.9255 18 20.6V5.4C18 4.07452 16.9255 3 15.6 3H14V1.8C14 0.805887 13.1941 0 12.2 0H5.8C4.80589 0 4 0.805887 4 1.8ZM12 2H6V4H12V2ZM3 10C3 9.44771 3.44772 9 4 9H14C14.5523 9 15 9.44771 15 10C15 10.5523 14.5523 11 14 11H4C3.44772 11 3 10.5523 3 10ZM3 13C3 12.4477 3.44772 12 4 12H14C14.5523 12 15 12.4477 15 13C15 13.5523 14.5523 14 14 14H4C3.44772 14 3 13.5523 3 13ZM3 16C3 15.4477 3.44772 15 4 15H10C10.5523 15 11 15.4477 11 16C11 16.5523 10.5523 17 10 17H4C3.44772 17 3 16.5523 3 16Z" fill="#40513B"/>
</svg>
