<svg width="20" height="24" viewBox="0 0 20 24" fill="none" xmlns="http://www.w3.org/2000/svg">
<path d="M14 3H16.6C17.9255 3 19 4.07452 19 5.4V20.6C19 21.9255 17.9255 23 16.6 23H3.4C2.07452 23 1 21.9255 1 20.6V5.4C1 4.07452 2.07452 3 3.4 3H6M5 13H15M5 10H15M5 16H11M6.8 1H13.2C13.6418 1 14 1.35817 14 1.8V4.2C14 4.64183 13.6418 5 13.2 5H6.8C6.35817 5 6 4.64183 6 4.2V1.8C6 1.35817 6.35817 1 6.8 1Z" stroke="#40513B" stroke-width="1.5" stroke-miterlimit="10" stroke-linecap="round" stroke-linejoin="round"/>
</svg>
