<svg width="20" height="18" viewBox="0 0 20 18" fill="none" xmlns="http://www.w3.org/2000/svg">
<path fill-rule="evenodd" clip-rule="evenodd" d="M14.475 13H17C18.6625 13 20 11.6625 20 10V3C20 1.3375 18.6625 0 17 0H3C1.3375 0 0 1.3375 0 3V10C0 11.6625 1.3375 13 3 13H5.5125C5.8125 13 6.1 13.1375 6.2875 13.375L9.2125 17.025C9.6125 17.525 10.375 17.525 10.775 17.025L13.7 13.375C13.8875 13.1375 14.175 13 14.475 13ZM5 5C5 4.44772 5.44772 4 6 4H14C14.5523 4 15 4.44772 15 5C15 5.55228 14.5523 6 14 6H6C5.44772 6 5 5.55228 5 5ZM5 8C5 7.44772 5.44772 7 6 7H14C14.5523 7 15 7.44772 15 8C15 8.55228 14.5523 9 14 9H6C5.44772 9 5 8.55228 5 8Z" fill="#40513B"/>
</svg>
