<svg width="23" height="20" viewBox="0 0 23 20" fill="none" xmlns="http://www.w3.org/2000/svg">
<path d="M7.5 6H15.5M7.5 9H15.5M18.5 14H15.975C15.675 14 15.3875 14.1375 15.2 14.375L12.275 18.025C11.875 18.525 11.1125 18.525 10.7125 18.025L7.7875 14.375C7.6 14.1375 7.3125 14 7.0125 14H4.5C2.8375 14 1.5 12.6625 1.5 11V4C1.5 2.3375 2.8375 1 4.5 1H18.5C20.1625 1 21.5 2.3375 21.5 4V11C21.5 12.6625 20.1625 14 18.5 14Z" stroke="#40513B" stroke-width="1.5" stroke-miterlimit="10" stroke-linecap="round" stroke-linejoin="round"/>
</svg>
