<svg width="20" height="22" viewBox="0 0 20 22" fill="none" xmlns="http://www.w3.org/2000/svg">
<path fill-rule="evenodd" clip-rule="evenodd" d="M19.1001 5.55141L19.1304 5.5747C19.6671 5.98829 20 6.62845 20 7.33166V18.5879C20 20.4722 18.487 22 16.6 22H3.4C1.51299 22 0 20.4722 0 18.5879V7.33166C0 6.62845 0.332883 5.98829 0.869648 5.5747L0.898952 5.55212L8.68857 0.42016C9.46141 -0.139789 10.4972 -0.140053 11.2703 0.419369L19.1001 5.55141ZM8 12V20H6V11.8C6 10.8077 6.80772 10 7.8 10H12.2C13.1923 10 14 10.8077 14 11.8V20H12V12H8Z" fill="#40513B"/>
</svg>
