<svg width="17" height="17" viewBox="0 0 17 17" fill="none" xmlns="http://www.w3.org/2000/svg">
<path d="M12.7374 0.726953C13.2451 0.219271 14.0682 0.219271 14.5759 0.726953L16.2729 2.42401C16.7806 2.93169 16.7806 3.75481 16.2729 4.26249L14.3637 6.17164L10.8282 2.63613L12.7374 0.726953Z" fill="#40513B"/>
<path d="M4.81781 15.7176C4.74801 15.7874 4.65911 15.835 4.56231 15.8544L1.02678 16.5615C0.862847 16.5942 0.693377 16.5429 0.575166 16.4247C0.456954 16.3065 0.405643 16.137 0.438429 15.9731L1.14554 12.4376C1.16489 12.3408 1.21247 12.2519 1.28227 12.1821L10.1211 3.34324L13.6566 6.87875L4.81781 15.7176Z" fill="#40513B"/>
</svg>
