<svg width="14" height="16" viewBox="0 0 14 16" fill="none" xmlns="http://www.w3.org/2000/svg">
<path d="M9.66667 1.99984H11.4C12.2837 1.99984 13 2.71618 13 3.59984V13.7332C13 14.6168 12.2837 15.3332 11.4 15.3332H2.6C1.71634 15.3332 1 14.6168 1 13.7332V3.59984C1 2.71618 1.71634 1.99984 2.6 1.99984H4.33333M3.66667 8.6665H10.3333M3.66667 6.6665H10.3333M3.66667 10.6665H7.66667M4.86667 0.666504H9.13333C9.42789 0.666504 9.66667 0.905285 9.66667 1.19984V2.79984C9.66667 3.09439 9.42789 3.33317 9.13333 3.33317H4.86667C4.57212 3.33317 4.33333 3.09439 4.33333 2.79984V1.19984C4.33333 0.905285 4.57212 0.666504 4.86667 0.666504Z" stroke="#40513B" stroke-miterlimit="10" stroke-linecap="round" stroke-linejoin="round"/>
</svg>
