<svg width="18" height="19" viewBox="0 0 18 19" fill="none" xmlns="http://www.w3.org/2000/svg">
<path fill-rule="evenodd" clip-rule="evenodd" d="M17.9999 9.7037C17.9999 9.06552 17.9415 8.45188 17.8329 7.86279H9.18359V11.3442H14.1261C13.9132 12.4692 13.2662 13.4223 12.2935 14.0605V16.3187H15.2615C16.9981 14.7519 17.9999 12.4446 17.9999 9.7037Z" fill="#4285F4"/>
<path fill-rule="evenodd" clip-rule="evenodd" d="M9.18343 18.5005C11.663 18.5005 13.7419 17.6945 15.2614 16.32L12.2934 14.0618C11.471 14.6018 10.4191 14.9209 9.18343 14.9209C6.7915 14.9209 4.76692 13.3377 4.04474 11.2104H0.976562V13.5423C2.48769 16.4836 5.59345 18.5005 9.18343 18.5005Z" fill="#34A853"/>
<path fill-rule="evenodd" clip-rule="evenodd" d="M4.04499 11.2098C3.86132 10.6698 3.75696 10.093 3.75696 9.49983C3.75696 8.90665 3.86132 8.32983 4.04499 7.78983V5.45801H0.976809C0.354824 6.67301 0 8.04755 0 9.49983C0 10.9521 0.354824 12.3266 0.976809 13.5416L4.04499 11.2098Z" fill="#FBBC05"/>
<path fill-rule="evenodd" clip-rule="evenodd" d="M9.18343 4.0793C10.5318 4.0793 11.7423 4.53339 12.6941 5.42521L15.3281 2.84385C13.7377 1.39157 11.6588 0.499756 9.18343 0.499756C5.59345 0.499756 2.48769 2.51658 0.976562 5.45794L4.04474 7.78976C4.76691 5.66249 6.7915 4.0793 9.18343 4.0793Z" fill="#EA4335"/>
</svg>
