<svg width="16" height="14" viewBox="0 0 16 14" fill="none" xmlns="http://www.w3.org/2000/svg">
<path d="M5.3335 4.33333H10.6668M5.3335 6.33333H10.6668M12.6668 9.66667H10.9835C10.7835 9.66667 10.5918 9.75833 10.4668 9.91667L8.51683 12.35C8.25016 12.6833 7.74183 12.6833 7.47516 12.35L5.52516 9.91667C5.40016 9.75833 5.2085 9.66667 5.0085 9.66667H3.3335C2.22516 9.66667 1.3335 8.775 1.3335 7.66667V3C1.3335 1.89167 2.22516 1 3.3335 1H12.6668C13.7752 1 14.6668 1.89167 14.6668 3V7.66667C14.6668 8.775 13.7752 9.66667 12.6668 9.66667Z" stroke="#40513B" stroke-miterlimit="10" stroke-linecap="round" stroke-linejoin="round"/>
</svg>
